<?xml version="1.0" standalone="no"?>
<!DOCTYPE svg PUBLIC "-//W3C//DTD SVG 20010904//EN"
 "http://www.w3.org/TR/2001/REC-SVG-20010904/DTD/svg10.dtd">
<svg version="1.0" xmlns="http://www.w3.org/2000/svg"
 width="147.000000pt" height="256.000000pt" viewBox="0 0 147.000000 256.000000"
 preserveAspectRatio="xMidYMid meet">
<g transform="translate(0.000000,256.000000) scale(0.100000,-0.100000)"
fill="#000000" stroke="none">
<path d="M722 2238 c-8 -8 -12 -49 -12 -120 0 -96 -2 -108 -17 -108 -28 0
-104 -29 -137 -52 -76 -52 -129 -132 -148 -220 -15 -68 -16 -762 -2 -838 21
-113 93 -203 203 -258 31 -15 61 -28 66 -28 6 -1 16 -2 23 -3 9 -1 12 -50 12
-211 0 -198 1 -210 20 -220 14 -8 25 -7 40 2 19 12 20 23 20 220 l0 208 25 0
c39 0 126 45 176 92 39 36 71 84 109 168 12 25 2 836 -10 881 -6 23 -20 57
-31 78 -20 40 -81 111 -95 111 -4 0 -17 8 -28 18 -23 20 -102 52 -129 52 -15
0 -17 13 -17 108 0 110 -7 132 -40 132 -9 0 -21 -5 -28 -12z m6 -280 c9 -9 18
-8 37 2 21 11 30 12 45 2 11 -7 26 -12 34 -12 20 0 99 -46 123 -72 71 -77 93
-167 93 -375 l0 -163 -135 0 c-88 0 -135 4 -135 11 0 10 23 53 70 132 37 62
28 67 -110 67 -135 0 -144 -5 -112 -61 62 -111 72 -131 72 -139 0 -6 -55 -10
-136 -10 l-137 0 5 196 c3 127 9 199 17 207 6 6 11 19 11 30 0 10 13 38 29 61
41 59 95 98 176 124 40 14 39 14 53 0z m82 -461 c0 -17 -58 -104 -65 -99 -11
7 -55 85 -55 96 0 3 27 6 60 6 33 0 60 -2 60 -3z m250 -379 c0 -217 -14 -281
-75 -353 -24 -27 -60 -58 -81 -69 -22 -10 -46 -22 -56 -27 -22 -11 -177 -9
-184 2 -3 5 -12 9 -20 9 -47 0 -174 129 -174 176 0 13 -4 24 -9 24 -10 0 -26
384 -16 400 4 6 113 10 311 10 l304 0 0 -172z"/>
</g>
  
  <!-- AI/程序读取的语义连接点 -->
  <g id="connection-points"
     fill="#ff0000"
     stroke="none"
     opacity="0.8"
     pointer-events="all">

    <!-- 高压输入 -->
    <circle id="port-pressure-in"
            cx="75"
            cy="240"
            r="4"
            data-port-type="hydraulic"
            data-direction="right" />

    <!-- 气压输入 -->
    <circle id="port-pressure-in"
            cx="75"
            cy="30"
            r="4"
            data-port-type="pneumatic"
            data-direction="down" />

  </g>
</svg>
